HIERARCHY
ROOT pelvis
{
  OFFSET 0 100 0
  CHANNELS 6 Xposition Yposition Zposition Zrotation Xrotation Yrotation
  JOINT pelvis_right_femur
  {
    OFFSET -10.78128 -3.44521 -0.5502486
    CHANNELS 3 Zrotation Xrotation Yrotation
    JOINT right_femur_tibia
    {
      OFFSET -0.8047443 -44.0398 -0.1307829
      CHANNELS 3 Zrotation Xrotation Yrotation
      JOINT right_tibia_foot
      {
        OFFSET 3.006224 -47.83518 -5
        CHANNELS 3 Zrotation Xrotation Yrotation
        End Site
        {
          OFFSET 0 -5 15
        }
      }
    }
  }
  JOINT pelvis_left_femur
  {
    OFFSET 10.78128 -3.44521 -0.5502486
    CHANNELS 3 Zrotation Xrotation Yrotation
    JOINT left_femur_tibia
    {
      OFFSET 0.8047443 -44.0398 -0.1307829
      CHANNELS 3 Zrotation Xrotation Yrotation
      JOINT left_tibia_foot
      {
        OFFSET -4.370144 -48.10324 -4.275266
        CHANNELS 3 Zrotation Xrotation Yrotation
        End Site
        {
          OFFSET 0 -5 15
        }
      }
    }
  }
  JOINT pelvis_spine1
  {
    OFFSET 0 6.468898 -3.129235
    CHANNELS 3 Zrotation Xrotation Yrotation
    JOINT spine1
    {
      OFFSET 0 23.15396 4.99043
      CHANNELS 3 Zrotation Xrotation Yrotation
      JOINT spine2
      {
        OFFSET 0 20.79997 -5.064912
        CHANNELS 3 Zrotation Xrotation Yrotation
        JOINT neck
        {
          OFFSET 0 14.38658 9.616178
          CHANNELS 3 Zrotation Xrotation Yrotation
          End Site
          {
            OFFSET 0 20 0
          }
        }
      }
      JOINT right_manubrium
      {
        OFFSET -5.722621 16.35077 3.967754
        CHANNELS 3 Zrotation Xrotation Yrotation
        JOINT right_clavicle
        {
          OFFSET -13.16364 1.694482 -4.693211
          CHANNELS 3 Zrotation Xrotation Yrotation
          JOINT right_humerus
          {
            OFFSET -28.5034 -0.3100689 -2.792744
            CHANNELS 3 Zrotation Xrotation Yrotation
            JOINT right_radius
            {
              OFFSET -25.15693 0.02248979 -1.271978
              CHANNELS 3 Zrotation Xrotation Yrotation
              End Site
              {
                OFFSET -15 0 0
              }
            }
          }
        }
      }
      JOINT left_manubrium
      {
        OFFSET 5.722621 16.35077 3.967754
        CHANNELS 3 Zrotation Xrotation Yrotation
        JOINT left_clavicle
        {
          OFFSET 13.16364 1.694482 -4.693211
          CHANNELS 3 Zrotation Xrotation Yrotation
          JOINT left_humerus
          {
            OFFSET 29.39168 -1.063119 -2.237045
            CHANNELS 3 Zrotation Xrotation Yrotation
            JOINT left_radius
            {
              OFFSET 24.59957 -0.9528479 0.9047498
              CHANNELS 3 Zrotation Xrotation Yrotation
              End Site
              {
                OFFSET 15 -0 -0
              }
            }
          }
        }
      }
    }
  }
}
MOTION
Frames: 13
Frame Time: 0.0416666666667
23.38587 103.5236 241.1898 2.121158 -8.301745 1.191075 -0.1713371 13.85736 5.69315 2.424841e-06 40.7979 -4.290223e-06 1.263471 -10.2676 -4.070335 -3.750925 -14.18867 -9.854623 -1.241355e-06 22.44099 3.230276e-06 -5.61227 -9.302157 19.81224 -3.12061 0.1115122 6.289167 -0.5340089 9.153917 -3.554987 1.767392 23.47573 6.060249 2.159925 -17.3662 7.873951 2.694539 -19.52054 10.81089 82.68749 27.11317 -8.527154 -2.319839e-07 1.505267e-07 20.61444 -24.1469 12.25766 14.15633 3.245179 -14.06525 -2.646057 -94.45351 26.90889 24.53684 -2.752598e-07 -3.347939e-07 -7.550024 -4.610181 6.982241 18.56939
24.33314 104.1131 246.9534 2.409655 -8.645929 1.630068 -0.7985908 11.34776 5.820856 2.564612e-06 45.0415 -4.719657e-06 2.383983 -8.773922 -4.93931 -4.51283 -10.81064 -10.43879 -1.986946e-06 21.32584 3.731149e-06 -6.132976 -10.65495 19.65202 -3.452068 0.2619839 5.773356 -0.6134936 8.848982 -3.657459 1.893958 23.69916 6.30126 2.167263 -16.97083 8.244245 2.943957 -18.4757 10.55692 83.299 27.04512 -9.293083 -1.145906e-07 1.151852e-07 19.70951 -24.50259 12.44321 14.0969 3.415294 -13.83103 -2.697797 -93.54959 27.76705 22.37572 -9.027474e-07 -4.213788e-07 -8.078627 -5.063462 6.37422 19.15066
25.28319 104.8194 252.7414 2.671013 -8.763333 2.258925 -1.275851 7.864232 5.777019 2.517987e-06 48.68968 -4.840453e-06 3.226108 -7.217113 -5.766586 -5.303742 -6.714229 -11.18078 -2.661155e-06 19.75179 4.100646e-06 -6.38372 -12.26102 19.44942 -3.765809 0.3429621 5.175071 -0.6026301 8.576736 -3.895099 1.986435 23.87619 6.571607 2.204649 -16.77039 8.618905 3.207016 -17.44872 10.3231 84.08143 27.11622 -10.39651 1.461213e-08 6.807812e-08 18.58781 -24.5173 12.5517 13.83588 3.661749 -13.84678 -2.786976 -92.51699 28.53847 20.03345 -1.509709e-06 -4.743627e-07 -9.009746 -5.233621 6.055935 19.39142
26.22179 105.5873 258.473 2.835665 -8.569488 3.019811 -1.463368 3.53073 5.534187 2.178641e-06 50.71068 -4.524816e-06 3.599664 -5.802443 -6.429996 -5.973828 -2.207771 -11.93455 -3.127846e-06 18.27214 4.176285e-06 -6.328806 -13.87783 19.12859 -3.982775 0.3347684 4.542898 -0.4656097 8.374304 -4.281542 2.023448 23.92271 6.821585 2.268791 -16.79817 8.919686 3.442674 -16.50274 10.13392 84.85513 27.32516 -11.8209 1.330761e-07 1.684502e-08 17.21813 -24.04206 12.56537 13.29185 3.962766 -14.18613 -2.913073 -91.21621 29.07944 17.60644 -1.987824e-06 -4.725129e-07 -10.42992 -5.018465 6.111252 19.13275
27.14672 106.3264 264.0643 2.871838 -8.119545 3.84707 -1.378507 -0.9294563 5.079206 1.487035e-06 50.85115 -3.662432e-06 3.321665 -4.615357 -6.757785 -6.420065 1.993101 -12.61969 -3.344452e-06 16.68201 4.012757e-06 -5.862308 -15.2858 18.78618 -4.069444 0.2227184 3.958597 -0.2343657 8.288372 -4.74184 1.998058 23.82141 6.995953 2.346718 -17.05774 9.083687 3.542909 -15.85268 10.01037 85.46856 27.53065 -13.26207 2.349566e-07 -3.78858e-08 15.84664 -23.15996 12.39908 12.56682 4.268706 -14.80822 -3.090319 -89.81198 29.20458 15.54092 -2.275806e-06 -4.184326e-07 -12.02063 -4.374805 6.61299 18.29767
28.03995 106.9696 269.469 2.771945 -7.50798 4.676687 -1.035699 -5.403843 4.455969 6.162831e-07 49.09046 -2.470182e-06 2.454945 -3.64366 -6.799327 -6.633029 5.832573 -13.15854 -3.330071e-06 15.50566 3.600008e-06 -5.115124 -16.39987 18.37942 -4.010863 0.03407862 3.429165 0.07916932 8.326671 -5.265149 1.922609 23.60485 7.082559 2.429125 -17.49334 9.106952 3.490359 -15.4543 9.958404 86.02163 27.6719 -14.76254 3.157793e-07 -9.120767e-08 14.42796 -21.98739 12.09252 11.6999 4.563141 -15.7052 -3.335352 -88.33604 28.9159 13.78536 -2.379689e-06 -3.255166e-07 -13.81045 -3.345038 7.461929 16.9412
28.87467 107.4792 274.6635 2.548526 -6.796361 5.453698 -0.4883125 -9.784624 3.751275 -2.011641e-07 45.68259 -1.230685e-06 1.159017 -2.899516 -6.622643 -6.644892 9.278052 -13.52561 -3.118787e-06 14.99931 2.963101e-06 -4.223675 -17.1925 17.8771 -3.821589 -0.2024025 2.958675 0.4556032 8.457193 -5.827661 1.810857 23.28464 7.085667 2.506177 -18.02775 9.003826 3.316944 -15.22254 9.960821 86.46088 27.74877 -16.28907 3.719492e-07 -1.383127e-07 12.95119 -20.61013 11.69142 10.72735 4.830779 -16.79553 -3.626368 -86.75516 28.29206 12.2577 -2.321735e-06 -2.102419e-07 -15.76054 -2.023192 8.503886 15.19085
29.62675 107.8551 279.6943 2.261588 -6.151885 6.143398 0.1888383 -13.77445 3.081962 -7.588665e-07 41.30062 -2.500253e-07 -0.2863912 -2.386009 -6.385091 -6.511327 12.21611 -13.67208 -2.770033e-06 15.66793 2.162454e-06 -3.438548 -17.64605 17.29746 -3.536895 -0.4302604 2.573363 0.8497441 8.670788 -6.392605 1.691304 22.98768 7.031766 2.572702 -18.58218 8.83037 3.068575 -15.09824 10.03017 87.0973 27.73886 -17.88554 4.00982e-07 -1.72158e-07 11.48274 -19.31633 11.32032 9.788394 5.055103 -17.99356 -3.954573 -85.41262 27.49035 10.97575 -2.156699e-06 -9.764571e-08 -17.8031 -0.6228788 9.528979 13.35378
30.28107 108.1099 284.5574 1.92679 -5.487293 6.7214 0.906278 -17.37472 2.506973 -1.108208e-06 36.4137 5.28165e-07 -1.747877 -2.100886 -6.073039 -6.301165 14.68343 -13.71217 -2.317878e-06 16.73555 1.281822e-06 -2.702645 -17.86606 16.66733 -3.211476 -0.6561321 2.254683 1.244431 8.875561 -6.921035 1.564041 22.6175 6.937177 2.622814 -19.09361 8.600854 2.816594 -14.99748 10.09925 87.41458 27.74462 -19.30638 4.082204e-07 -1.950403e-07 10.08163 -17.98258 10.93842 8.850299 5.235404 -19.12673 -4.243551 -83.97402 26.61738 9.84457 -1.914141e-06 5.575262e-09 -19.7458 0.7825775 10.46224 11.50483
30.83699 108.2766 289.3176 1.632009 -4.974202 7.199957 1.565493 -20.34411 2.107337 -1.236268e-06 31.96027 9.691326e-07 -2.89891 -1.958592 -5.874137 -6.090846 16.68319 -13.6164 -1.856113e-06 18.48633 4.189369e-07 -2.260271 -17.90067 16.02272 -2.901205 -0.8186494 2.006515 1.58313 9.049445 -7.370189 1.462844 22.30808 6.83996 2.654099 -19.46864 8.388437 2.614042 -14.83533 10.1663 87.7181 27.73427 -20.58526 3.988328e-07 -2.038047e-07 8.809133 -16.90589 10.67827 8.050107 5.366089 -20.08475 -4.485751 -82.72773 25.86078 8.795353 -1.682296e-06 8.142541e-08 -21.49399 1.922477 11.11993 10.00239
31.3153 108.4115 294.0679 1.445357 -4.708222 7.604338 2.076892 -22.416 1.917282 -1.199446e-06 28.68873 1.050735e-06 -3.530242 -1.895841 -5.87643 -5.936902 18.12787 -13.39049 -1.462356e-06 20.78831 -3.153421e-07 -2.220094 -17.79007 15.42793 -2.65551 -0.883573 1.836739 1.817596 9.167322 -7.690716 1.408787 22.1283 6.764405 2.664653 -19.64143 8.239657 2.49434 -14.58278 10.21876 88.07726 27.68738 -21.63256 3.790347e-07 -1.984918e-07 7.772246 -16.26427 10.60945 7.486975 5.440419 -20.75121 -4.66317 -81.82503 25.35492 7.83498 -1.52287e-06 1.224397e-07 -22.87846 2.597799 11.41199 9.095961
31.76548 108.5917 298.972 1.477249 -4.905899 7.99629 2.291104 -23.35283 1.925419 -1.047147e-06 27.7468 7.111328e-07 -3.379985 -1.691982 -6.247871 -5.924037 19.0851 -13.02853 -1.297829e-06 23.628 -7.415351e-07 -2.761318 -17.64413 14.97814 -2.539907 -0.7943884 1.730217 1.87985 9.232995 -7.837257 1.439458 22.252 6.750467 2.655406 -19.54006 8.236886 2.4618 -14.21251 10.25999 88.93243 27.46451 -22.47299 3.666275e-07 -1.846038e-07 7.058728 -16.41769 10.8447 7.333962 5.458407 -21.04948 -4.807787 -81.64463 25.26139 6.928494 -1.554637e-06 1.206398e-07 -23.76172 2.572999 11.23563 9.096245
32.23143 108.8904 304.116 1.642242 -5.361333 8.381998 2.360684 -23.02502 2.107326 -7.593217e-07 27.98733 3.975801e-08 -2.738347 -1.63779 -6.769159 -5.938931 19.14318 -12.49454 -1.206756e-06 26.90294 -9.908025e-07 -3.671049 -17.24951 14.631 -2.483043 -0.6073085 1.743048 1.816882 9.254962 -7.812933 1.516202 22.49901 6.74029 2.619667 -19.22667 8.278235 2.485804 -13.83319 10.29014 89.7197 27.18116 -22.90975 3.40635e-07 -1.547113e-07 6.712633 -17.0491 11.26879 7.472932 5.400591 -21.00578 -4.881193 -81.85321 25.42179 6.288676 -1.63958e-06 8.734313e-08 -24.11108 2.051229 10.72004 9.720542
